<?xml version="1.0" standalone="no"?>
<!DOCTYPE svg PUBLIC "-//W3C//DTD SVG 20010904//EN"
 "http://www.w3.org/TR/2001/REC-SVG-20010904/DTD/svg10.dtd">
<svg version="1.0" xmlns="http://www.w3.org/2000/svg"
 width="118.000000pt" height="121.000000pt" viewBox="0 0 118.000000 121.000000"
 preserveAspectRatio="xMidYMid meet">

<g transform="translate(0.000000,121.000000) scale(0.100000,-0.100000)"
fill="#000000" stroke="none">
<path d="M505 1026 c-150 -37 -273 -158 -316 -311 -18 -64 -18 -176 0 -240 60
-211 270 -353 468 -316 298 55 450 390 300 658 -58 106 -168 187 -285 212 -65
14 -102 13 -167 -3z m237 -79 c79 -39 143 -104 181 -185 29 -61 32 -75 32
-167 0 -92 -3 -106 -32 -167 -38 -81 -102 -146 -181 -185 -50 -24 -69 -28
-147 -28 -78 0 -97 4 -147 28 -79 39 -143 104 -181 185 -29 61 -32 75 -32 167
0 83 4 108 23 150 49 107 119 176 220 216 72 29 189 23 264 -14z"/>
<path d="M460 755 l-125 -125 68 0 67 0 0 -140 0 -140 120 0 120 0 0 140 0
140 67 0 68 0 -125 125 c-69 69 -127 125 -130 125 -3 0 -61 -56 -130 -125z
m195 -5 c57 -57 58 -60 32 -60 l-27 0 0 -140 0 -140 -70 0 -70 0 0 140 0 140
-27 0 c-26 0 -25 3 32 60 33 33 62 60 65 60 3 0 32 -27 65 -60z"/>
</g>
</svg>
